<svg id="Layer_1" data-name="Layer 1" xmlns="http://www.w3.org/2000/svg" xmlns:xlink="http://www.w3.org/1999/xlink" viewBox="0 0 225 125"><defs><style>.cls-1{fill:none;}.cls-2{fill:#7b7b7a;}.cls-3{fill:#e3e3e3;}.cls-4{clip-path:url(#clip-path);}.cls-5{fill:url(#linear-gradient);}.cls-6{fill:#f6a800;}.cls-7{fill:#020203;}.cls-8{fill:#575656;}</style><clipPath id="clip-path"><polyline class="cls-1" points="112.5 12.63 12.75 62.5 112.5 112.38 212.25 62.5 112.5 12.63"/></clipPath><linearGradient id="linear-gradient" x1="-0.07" y1="-0.42" x2="0.29" y2="-0.42" gradientTransform="matrix(565.51, 0, 0, -565.51, 50.18, -173.13)" gradientUnits="userSpaceOnUse"><stop offset="0" stop-color="#939393"/><stop offset="0.35" stop-color="#fff"/><stop offset="0.5" stop-color="#fdfdfd"/><stop offset="0.58" stop-color="#f5f5f5"/><stop offset="0.65" stop-color="#e7e7e7"/><stop offset="0.67" stop-color="#e0e0e1"/><stop offset="0.75" stop-color="#dededf"/><stop offset="0.78" stop-color="#d7d8d8"/><stop offset="0.81" stop-color="#cccdcd"/><stop offset="0.81" stop-color="#cbcccc"/><stop offset="0.84" stop-color="#bfbfbf"/><stop offset="0.92" stop-color="#9e9e9e"/><stop offset="1" stop-color="#6f6f6e"/></linearGradient></defs><polygon class="cls-2" points="112.5 6.25 112.5 12.51 212.37 62.5 112.5 112.49 112.5 118.75 225 62.5 112.5 6.25"/><polygon class="cls-3" points="112.5 6.25 0 62.5 112.5 118.75 112.5 112.49 12.63 62.5 112.5 12.51 112.5 6.25"/><g class="cls-4"><rect class="cls-5" x="12.75" y="12.62" width="199.5" height="99.75"/></g><path class="cls-6" d="M39.69,49c-1.44.58,82-27.11,172.55,13.58L187.17,51.47S117.51,21.49,85.72,26l-46,23"/><path class="cls-7" d="M90.24,23.65c-1.54.38,27.08-5.17,113,34.86l-90.77-46L90.24,23.65"/><path class="cls-6" d="M185.38,76.07c1.44-.58-82,27.12-172.56-13.57l25.08,11s69.66,30,101.44,25.48l46-23"/><path class="cls-7" d="M134.83,101.37c1.54-.38-27.08,5.17-113-34.86l90.77,46,22.26-11.15"/><path class="cls-8" d="M215,62.5,112.5,11.71,10,62.5,112.5,113.29,215,62.5m-201.36,0L112.5,13.55l98.82,49-98.82,49Z"/><path class="cls-7" d="M67.26,55.33a8.89,8.89,0,0,0-3-2.45,7.52,7.52,0,0,0-3.16-.63,7.6,7.6,0,0,0-6,2.72,10.51,10.51,0,0,0-2.33,7.1,10.66,10.66,0,0,0,2.35,7.26A7.91,7.91,0,0,0,61.41,72a10.47,10.47,0,0,0,3.19-.56,11.17,11.17,0,0,0,3.49-2l.51.23a23,23,0,0,0-.83,3,14.9,14.9,0,0,1-3.5,1.14,21.84,21.84,0,0,1-3.71.31A15.42,15.42,0,0,1,50.69,71a10.34,10.34,0,0,1-3.9-8.61,11,11,0,0,1,4-9,16,16,0,0,1,10.38-3.26,22.42,22.42,0,0,1,3.46.28,19.28,19.28,0,0,1,3.95,1.12c-.38,1.19-.71,2.44-1,3.77h-.33"/><polyline class="cls-7" points="72.07 73.74 72.07 50.54 86.11 50.54 86.11 53.13 77.69 53.13 77.69 60.24 85.86 60.24 85.86 63.25 77.69 63.25 77.69 70.89 86.11 70.89 86.11 73.74 72.07 73.74"/><path class="cls-7" d="M90.36,50.54h12.25c3.92,0,6.78,1.12,8.6,3.36a12,12,0,0,1,2.72,7.79,11.82,11.82,0,0,1-3.44,8.48q-3.43,3.57-10.27,3.57H90.36V50.54m5.91,2.26V71.49s1.16,0,1.78.08l1.41,0a7.87,7.87,0,0,0,6.12-2.55q2.36-2.55,2.35-7.28a10,10,0,0,0-2.06-6.63A7.13,7.13,0,0,0,100,52.68h-.82C98.83,52.68,96.27,52.8,96.27,52.8Z"/><polyline class="cls-7" points="117.04 73.74 117.05 50.54 122.99 50.54 122.99 73.74 117.04 73.74"/><polyline class="cls-7" points="132.87 73.74 127.22 73.74 127.22 50.54 132.87 50.54 139.34 61.73 145.8 50.54 151.45 50.54 151.45 73.74 145.8 73.74 145.8 57.21 139.34 67.95 132.87 57.85 132.87 73.74"/><path class="cls-7" d="M152.55,73.74l10.73-23.2h2.91l10.45,23.2h-6.57l-2.4-6.65h-7.83l-3.45,6.65h-3.84m7.83-9.25h6.21l-2.79-7.56Z"/></svg>