<svg xmlns="http://www.w3.org/2000/svg" width="121.3" height="26.92" viewBox="0 0 121.3 26.92">
  <path id="duss" d="M106.6,27a20.536,20.536,0,0,1-8.1-1.6c-3.6-1.6-5.5-4.2-5.6-7.7h9.6a3.287,3.287,0,0,0,.4,1.7c.6,1.2,2.1,1.9,4.6,1.9.9,0,4-.2,4-2.3,0-1.3-1.3-1.7-6.7-3l-.5-.1a25.8,25.8,0,0,1-6.8-2.2,5.513,5.513,0,0,1-3.2-5.1,6.283,6.283,0,0,1,1.1-3.8,9.023,9.023,0,0,1,2.8-2.7,17.658,17.658,0,0,1,8.7-2A18.1,18.1,0,0,1,115.8,2a7.641,7.641,0,0,1,4.1,6.6h-9.1a1.885,1.885,0,0,0-1.1-2.1,5.547,5.547,0,0,0-2.8-.7c-.8,0-3.4.1-3.4,1.7.1,1.4,3,2,6.2,2.7.9.2,1.8.4,2.8.6,4.3,1,8.8,2.7,8.8,7.4,0,3.1-1.5,5.4-4.6,7A27.645,27.645,0,0,1,106.6,27ZM76.4,27a20.536,20.536,0,0,1-8.1-1.6c-3.6-1.6-5.5-4.2-5.6-7.7h9.6a4.671,4.671,0,0,0,.3,1.7c.6,1.2,2.1,1.9,4.6,1.9.9,0,4-.2,4-2.3,0-1.3-1.3-1.7-6.7-3l-.5-.1a25.8,25.8,0,0,1-6.8-2.2A5.513,5.513,0,0,1,64,8.6a6.283,6.283,0,0,1,1.1-3.8,9.023,9.023,0,0,1,2.8-2.7,17.658,17.658,0,0,1,8.7-2A18.1,18.1,0,0,1,85.5,2a7.641,7.641,0,0,1,4.1,6.6H80.5a1.885,1.885,0,0,0-1.1-2.1,5.81,5.81,0,0,0-2.8-.7c-.8,0-3.4.1-3.4,1.7.1,1.4,3,2,6.2,2.7.9.2,1.8.4,2.8.6,4.3,1,8.8,2.7,8.8,7.4,0,3.1-1.5,5.4-4.6,7A27.129,27.129,0,0,1,76.4,27ZM46.5,27C37,27,32.4,23.6,32.4,16.6V1.1h9.5V14.9c0,2.6,0,5.8,4.6,5.8,4.5,0,4.5-3.2,4.5-5.8V1.1h9.5V16.6C60.5,23.6,55.9,27,46.5,27ZM14.1,27H0V1.1H16c4.9,0,8.6,1.4,11.1,4A13.176,13.176,0,0,1,30.3,14c0,4.1-1.3,7.3-3.9,9.5C23.5,25.8,19.4,27,14.1,27ZM9.7,7.6v13h3.8c6.1,0,7-4.2,7-6.6,0-1.9-.7-6.3-7.7-6.3Z" transform="translate(0 -0.089)" fill="red"/>
</svg>
