<svg xmlns="http://www.w3.org/2000/svg" viewBox="0 0 283.46 76.97"><defs><style>.a{fill:#e75b28;}.b{fill:#fff;}.c{fill:#1a1a18;}</style></defs><title>FEIN-LOGO_CD2019_RGB</title>
    <path class="a" d="M71.05,77H5.92A5.92,5.92,0,0,1,0,71V5.92A5.92,5.92,0,0,1,5.92,0H71.05A6.09,6.09,0,0,1,77,6.11V71.23A5.77,5.77,0,0,1,71.05,77"/>
    <path class="b" d="M49.31,29.19c-3-1-2.57-1.69-3.31-2.65a1.58,1.58,0,0,0-2.23.12c-.55.55-.22,1.73.43,2.31a5.36,5.36,0,0,0,3.27,1.39c2.27.24,2.67-.91,1.84-1.17M60.53,18.68H16.92a3.05,3.05,0,0,0-.52.05,29.61,29.61,0,0,1,44.13-.05M8.84,38.48a29.66,29.66,0,0,1,1.78-10.14,7.37,7.37,0,0,0,.72,1.54L25.85,50.75V63.64A9,9,0,0,0,26,65.37,29.68,29.68,0,0,1,8.84,38.48M30.46,66.42c-.94,0-1.55-.82-1.55-3.33V54.36c1.35,2.44,3.23,5.69,3.23,9.06,0,1.44-.73,3-1.68,3m6.07-30.81c1.36-1.33,2.7-.23,2,1.25A7.92,7.92,0,0,1,34,40.59a8.74,8.74,0,0,1,2.53-5m1.95,32.52A30.09,30.09,0,0,1,34,67.79a6.58,6.58,0,0,0,1.48-4.74c0-5.81-6.57-14.13-6.57-14.13V43c.51.14,1.08.27,1.71.38A10.39,10.39,0,0,0,32.05,48a4.25,4.25,0,0,0,3.63,2.28c3.16,0,6-4.12,6.93-6.12-.2,2.82-.18,4.75.52,5.55a1.76,1.76,0,0,0,1.49.55c1.92,0,3.62-4.36,5.8-9.42-.1,3.61-.27,7.44-.26,8.21s.41,1,1.17,1.15a1.37,1.37,0,0,0,1.71-1c1.62-4.42,4-11.1,4.71-11.59.31-.21-.24,2.82-.48,6.72s.41,5.61,1.59,5.77c1.51.22,2.68-.66,3.65-2.71,1.13-2.37.78-3.42.43-3.78-.92-1-1.8,2.6-2.47,2.45-.3-.06.09-4.06.24-6.29.32-4.79.83-6.55-.13-6.89a5.47,5.47,0,0,0-2-.38c-.88,0-1.81.92-5.22,9.1,0,0,.24-6.85.23-8.17,0-.69-.6-.95-1.29-1.07a1.43,1.43,0,0,0-1.67.79c-1.5,4.18-4.55,11.67-4.84,11.78s.92-10.25,1-11.29-.34-1.11-1.22-1.28a1.28,1.28,0,0,0-1.65,1.1,26,26,0,0,1-3.43,9.3c-2.1,3.21-3.81,4.28-4.61,4.28s-1.79-.88-2-3.57c3.21-.31,6.23-3.47,7-5.69.67-1.89.56-3.37-.35-4.39s-2.52-1.31-4.23-.71a9.65,9.65,0,0,0-5.58,7.7A13,13,0,0,1,28.91,40V26.86a1.38,1.38,0,0,0-1.53-1.25,1.37,1.37,0,0,0-1.53,1.25V38.52a5.67,5.67,0,0,1-.82-.68c-1.48-1.59-.38-3.26-1.56-3.25-1,0-1.62,2.52-.06,4.66a8.86,8.86,0,0,0,2.44,2.4v3.7l-11.72-17c-1.34-2.06-.41-4.4,2.79-4.4H64.3a29.63,29.63,0,0,1-25.82,44.2M71,38.48A32.52,32.52,0,1,0,38.48,71,32.55,32.55,0,0,0,71,38.48"/>
    <path class="c" d="M139.78,8.88H98.49a1,1,0,0,0-1,1V67.07a1,1,0,0,0,1,1h12.58a1,1,0,0,0,1-1V48.15h24.53a1,1,0,0,0,1-1V36.51a1,1,0,0,0-1-1H112.12V21.8h27.66a1,1,0,0,0,1-1v-11A1,1,0,0,0,139.78,8.88Z"/>
    <path class="c" d="M192.59,21.81a1,1,0,0,0,1-1v-11a1,1,0,0,0-1-1h-43a1,1,0,0,0-1,1V67.09a1,1,0,0,0,1,1h42.94a1,1,0,0,0,1-1V56.15a1,1,0,0,0-1-1H163.28V43.92H188a1,1,0,0,0,1-1V33.39a1,1,0,0,0-1-1H163.28V21.81Z"/>
    <path class="c" d="M202.49,8.88L215.47,8.88C216.022,8.88,216.47,9.328,216.47,9.88L216.47,67.08C216.47,67.632,216.022,68.08,215.47,68.08L202.49,68.08C201.938,68.08,201.49,67.632,201.49,67.08L201.49,9.88C201.49,9.328,201.938,8.88,202.49,8.88Z"/>
    <path class="c" d="M282.44,8.88H268.76a1,1,0,0,0-1,1V44L239.21,9.65a2.44,2.44,0,0,0-1.69-.77H225.37a1.93,1.93,0,0,0-.3.06L225,9a.93.93,0,0,0-.47.47s0,0,0,0a1.33,1.33,0,0,0-.06.3s0,0,0,.07V67.1h0a1.24,1.24,0,0,0,.06.31.56.56,0,0,0,0,.12A.87.87,0,0,0,225,68h0a1.36,1.36,0,0,0,.33.07h13.79a1,1,0,0,0,.32-.06l.11,0a.87.87,0,0,0,.47-.49v0a1,1,0,0,0,.06-.31.14.14,0,0,0,0-.06V32.89l29.2,34.43a2.44,2.44,0,0,0,1.69.77h11.43a1,1,0,0,0,1-1h0V9.9A1,1,0,0,0,282.44,8.88Z"/>
</svg>
