<?xml version="1.0" encoding="utf-8"?>
<!-- Generator: Adobe Illustrator 23.0.6, SVG Export Plug-In . SVG Version: 6.00 Build 0)  -->
<svg version="1.1" id="Layer_1" xmlns="http://www.w3.org/2000/svg" xmlns:xlink="http://www.w3.org/1999/xlink" x="0px" y="0px"
	 viewBox="0 0 150.9 58.6" style="enable-background:new 0 0 150.9 58.6;" xml:space="preserve">
<style type="text/css">
	.st0{fill:#FFD600;}
	.st1{fill:#1A5632;}
</style>
<g id="torches">
</g>
<g id="art">
	<g>
		<rect x="0.1" y="47.8" class="st0" width="144.2" height="10.8"/>
		<path d="M80.4,50.5H81l2.2,5.7h-0.6L82,54.5h-2.6l-0.7,1.8h-0.6L80.4,50.5z M79.6,54h2.3l-1.1-2.9L79.6,54z"/>
		<path d="M83.8,50.5h0.6l3.3,4.8l0,0v-4.8h0.5v5.7h-0.6l-3.3-4.8l0,0v4.8h-0.5V50.5z"/>
		<path d="M91.5,50.5h4.3v1.1h-3v1.2h2.8v1h-2.8v1.4h3.1v1.1h-4.3L91.5,50.5L91.5,50.5z"/>
		<path d="M97.4,54.3c0,0.8,0.6,1.1,1.3,1.1c0.4,0,1.1-0.1,1.1-0.7c0-0.6-0.9-0.7-1.7-0.9c-0.9-0.2-1.7-0.6-1.7-1.6
			c0-1.2,1.1-1.7,2.1-1.7c1.2,0,2.3,0.5,2.3,1.8h-1.2c0-0.7-0.5-0.9-1.1-0.9c-0.4,0-0.9,0.2-0.9,0.6c0,0.4,0.3,0.5,1.7,0.9
			c0.4,0.1,1.7,0.4,1.7,1.7c0,1.1-0.8,1.8-2.4,1.8c-1.3,0-2.5-0.6-2.4-2L97.4,54.3L97.4,54.3z"/>
		<path d="M103.1,50.5h1.3l2.1,5.7h-1.3l-0.4-1.3h-2.1l-0.4,1.3H101L103.1,50.5z M103,54h1.5l-0.7-2.1l0,0L103,54z"/>
		<path d="M107.1,50.5h2.7c1.1,0,1.8,0.4,1.8,1.4c0,0.6-0.3,1-0.8,1.2c0.7,0.2,1.1,0.7,1.1,1.5c0,1.2-1,1.7-2,1.7h-2.8
			C107.1,56.3,107.1,50.5,107.1,50.5z M108.3,52.8h1.3c0.4,0,0.8-0.2,0.8-0.7s-0.4-0.7-0.9-0.7h-1.2
			C108.3,51.4,108.3,52.8,108.3,52.8z M108.3,55.3h1.3c0.5,0,0.9-0.2,0.9-0.8s-0.4-0.8-0.9-0.8h-1.4L108.3,55.3L108.3,55.3z"/>
		<path d="M116.5,50.5h2.4c1,0,1.8,0.3,1.8,1.4c0,0.6-0.4,1.2-1,1.3l0,0c0.7,0.1,1.2,0.6,1.2,1.4c0,0.5-0.2,1.6-2.1,1.6h-2.4
			L116.5,50.5L116.5,50.5z M117.1,53h1.9c0.9,0,1.3-0.4,1.3-1c0-0.7-0.4-1.1-1.3-1.1h-1.9V53z M117.1,55.8h1.9
			c0.8,0,1.5-0.3,1.5-1.2c0-0.7-0.6-1.1-1.5-1.1h-1.9V55.8z"/>
		<path d="M121.4,50.5h2.6c0.9,0,1.7,0.5,1.7,1.5c0,0.7-0.4,1.3-1.1,1.5l0,0c0.7,0.1,1,0.6,1,1.3c0,0.4,0,1.2,0.3,1.5h-0.6
			c-0.1-0.2-0.1-0.6-0.2-0.9c0-0.8-0.1-1.7-1.1-1.7h-2v2.5h-0.5L121.4,50.5L121.4,50.5z M122,53.2h2c0.7,0,1.2-0.4,1.2-1.1
			c0-0.7-0.4-1.1-1.2-1.1h-2V53.2z"/>
		<path d="M128.6,50.5h0.6l2.2,5.7h-0.6l-0.7-1.8h-2.6l-0.7,1.8h-0.6L128.6,50.5z M127.7,54h2.3l-1.1-2.9L127.7,54z"/>
		<path d="M132,50.5h0.6l3.3,4.8l0,0v-4.8h0.5v5.7h-0.6l-3.3-4.8l0,0v4.8H132V50.5z"/>
		<path d="M137.1,50.5h2c1.7,0,2.6,1,2.6,2.9s-0.9,2.8-2.6,2.9h-2V50.5z M137.7,55.8h1.2c1.6,0,2.4-0.7,2.4-2.4s-0.7-2.4-2.4-2.4
			h-1.2V55.8z"/>
		<g>
			<path d="M114.2,51.5c0,0.6-0.5,1.1-1.1,1.1s-1.1-0.5-1.1-1.1s0.5-1.1,1.1-1.1C113.7,50.5,114.2,50.9,114.2,51.5z M112.2,51.5
				c0,0.5,0.4,0.9,0.9,0.9s0.9-0.4,0.9-0.9s-0.4-0.9-0.9-0.9S112.2,51,112.2,51.5z M112.9,52.2h-0.2v-1.3h0.5c0.3,0,0.4,0.1,0.4,0.3
				s-0.1,0.3-0.3,0.4l0.4,0.6h-0.2l-0.4-0.6h-0.3L112.9,52.2L112.9,52.2z M113.1,51.5c0.2,0,0.4,0,0.4-0.2s-0.1-0.2-0.3-0.2h-0.3
				v0.4H113.1z"/>
		</g>
		<g>
			<path class="st1" d="M0.2,41.8L0,1.8h9.4l-1.2,28h0.1l10.8-28h9.4l-17.2,40H0.2z"/>
			<path class="st1" d="M22.8,41.8l8.5-40h9.4l-8.5,40H22.8z"/>
			<path class="st1" d="M57.7,15.8l0.5-2.6C59,9.8,58.2,8,56.4,8c-2.9-0.1-4,1.5-4.5,4.2L47.6,32c-0.5,2.2,0.1,3.6,2.6,3.6
				c3.2,0,4.2-3.3,4.7-5.8l0.8-3.6h9.4l-1,4.9c-1.5,6.9-6.4,11.7-16,11.7c-8.6,0-11-4.6-9.3-12.7l3.5-16.4C44.1,5,49,1,57.6,1
				c8,0,12.1,3.4,10.3,11.6L67.2,16h-9.5V15.8z"/>
			<path class="st1" d="M71.4,1.8h24.3l-1.7,8h-7.6l-6.8,32h-9.4l6.8-32h-7.4L71.4,1.8z"/>
			<path class="st1" d="M117.1,29c-1.9,9-6.1,13.7-15.5,13.7S89.7,38,91.6,29l3.5-16.3c1.6-7.7,7.1-11.9,15.3-11.9
				s11.7,4.3,10.1,11.9L117.1,29z M111,13.4c0.5-2.5,0.9-5.4-2.2-5.4c-3,0-4,2.9-4.5,5.4l-3.5,16.4c-0.5,2.3-0.8,5.7,2.2,5.7
				s4-3.4,4.5-5.7L111,13.4z"/>
			<path class="st1" d="M127,41.8h-9.4l8.5-40h13.7c7.7,0,10.9,3.1,9.2,11c-0.9,4.3-2.6,7.3-6.9,9.1V22c2.5,0.6,4,2.4,3.5,5.2
				c-0.4,3.2-1.8,10.1-1.8,12.6c0.1,0.5,0.3,1,0.6,1.4l-0.1,0.5h-10.2c-0.1-0.7-0.2-1.5,0-2.3c0.6-3.5,1.5-6.8,1.8-9.3
				s-0.2-4.1-2.3-4.2h-3.1L127,41.8z M131.9,18.8h3.2c2.7,0,3.9-2.5,4.4-5c1-4.7-0.9-5-5.5-4.8L131.9,18.8z"/>
		</g>
		<g>
			<path class="st1" d="M148.1,36.4c1.5,0,2.8,1.2,2.8,2.8s-1.3,2.8-2.8,2.8s-2.8-1.2-2.8-2.8C145.4,37.6,146.6,36.4,148.1,36.4z
				 M148.1,41.5c1.3,0,2.3-1,2.3-2.4c0-1.3-1-2.3-2.3-2.3s-2.3,1-2.3,2.3C145.9,40.5,146.8,41.5,148.1,41.5z M147.1,37.5h1.3
				c0.8,0,1.1,0.3,1.1,0.9c0,0.6-0.4,0.8-0.9,0.9l0.9,1.4H149l-0.9-1.4h-0.5v1.4h-0.5V37.5z M147.6,39h0.5c0.4,0,0.9,0,0.9-0.5
				c0-0.4-0.4-0.5-0.7-0.5h-0.7V39z"/>
		</g>
	</g>
</g>
</svg>
